<!DOCTYPE svg PUBLIC "-//W3C//DTD SVG 1.1//EN" "http://www.w3.org/Graphics/SVG/1.1/DTD/svg11.dtd">
<!-- Uploaded to: SVG Repo, www.svgrepo.com, Transformed by: SVG Repo Mixer Tools -->
<svg version="1.1" id="Layer_1" xmlns="http://www.w3.org/2000/svg" xmlns:xlink="http://www.w3.org/1999/xlink" viewBox="-40.96 -40.96 593.92 593.92" xml:space="preserve" width="800px" height="800px" fill="#000000" stroke="#000000">
<g id="SVGRepo_bgCarrier" stroke-width="0" transform="translate(0,0), scale(1)">
<path transform="translate(-40.96, -40.96), scale(18.56)" d="M16,31.205585138665306C18.832001447942837,31.78534699148978,22.096377863006385,30.67342257586246,24.076641548902682,28.567499561727992C25.994315199814405,26.528138286854947,24.901695894259987,23.141844577757233,26.002749479218316,20.568102624121764C27.062461125363743,18.090998548806656,30.3367561715391,16.633230668695052,30.33476413043114,13.938972068506276C30.33277730352733,11.251765739638135,28.025775828199315,9.098535337693377,25.992969850850585,7.341042333483852C24.138871032466124,5.738053293342501,21.71032196332186,5.246473456900055,19.384896965256246,4.472099600471855C16.965541972447266,3.666446759632545,14.633402776755338,2.433260603060065,12.098965009200375,2.7142949133732603C9.311687752037447,3.0233656475795785,6.553607884501053,4.111070973851641,4.589459361990668,6.112710254181842C2.5689523677047443,8.171783750709256,0.9187605790418779,10.990772351513678,1.1563260645979643,13.865801884950242C1.3868103039238895,16.655133818006895,4.1356750795500465,18.405625967917732,5.79167508350673,20.661985780590058C7.079218921596155,22.41631076028665,8.287783042925359,24.08171892356263,9.801462539864742,25.645112555996516C11.772131357897107,27.680504518414825,13.224480939550547,30.63738625084175,16,31.205585138665306" fill="#e2dcc4" strokewidth="0"/>
</g>
<g id="SVGRepo_tracerCarrier" stroke-linecap="round" stroke-linejoin="round" stroke="#CCCCCC" stroke-width="1.024"/>
<g id="SVGRepo_iconCarrier"> <path style="fill:#555753;" d="M408,32c4.416,0,8-3.584,8-8V8c0-4.416-3.584-8-8-8H104c-4.416,0-8,3.584-8,8v16c0,4.416,3.584,8,8,8 h8v182.16c-0.48,12.648-2.936,25.152-7.28,37.04c-1,3.152-1,6.528,0,9.68c4.336,11.864,6.792,24.336,7.28,36.96V480h-8 c-4.416,0-8,3.584-8,8v16c0,4.416,3.584,8,8,8h304c4.416,0,8-3.584,8-8v-16c0-4.416-3.584-8-8-8h-8V297.84 c0.48-12.648,2.936-25.152,7.28-37.04c1-3.152,1-6.528,0-9.68c-4.336-11.864-6.792-24.336-7.28-36.96V32H408z M384,214.16 c-0.48,12.648-2.936,25.152-7.28,37.04c-1,3.152-1,6.528,0,9.68c4.336,11.864,6.792,24.336,7.28,36.96V480H128V297.84 c0.48-12.648,2.936-25.152,7.28-37.04c1-3.152,1-6.528,0-9.68c-4.336-11.864-6.792-24.336-7.28-36.96V32h256V214.16z"/> <path style="fill:#E2E7F0;" d="M360,152V32H152v120c0.016,39.232,22.104,75.112,57.12,92.8c4,1.88,5.72,6.648,3.84,10.64 c-0.792,1.688-2.152,3.04-3.84,3.84C174.128,276.952,152.04,312.8,152,352v128h208V352c-0.016-39.232-22.104-75.112-57.12-92.8 c-4-1.88-5.72-6.648-3.84-10.64c0.792-1.688,2.152-3.04,3.84-3.84C337.872,227.048,359.96,191.2,360,152z"/> <path style="fill:#000000;" d="M120,496h272c8.84,0,16,7.16,16,16H104C104,503.16,111.16,496,120,496z"/> <g> <path style="fill:#75507b;" d="M244.56,149.92L168,136v16c0,35.656,21.512,67.776,54.48,81.36 c15.168,5.888,25.256,20.376,25.52,36.64v2h16v-2c0.264-16.264,10.352-30.752,25.52-36.64C322.488,219.776,344,187.656,344,152v-16 l-76.56,13.92C259.872,151.296,252.128,151.296,244.56,149.92z"/> <circle style="fill:#75507b;" cx="256" cy="272" r="8"/> </g> <g> <path style="fill:#ad7fa8;" d="M256,344c-4.416,0-8-3.584-8-8v-32c0-4.416,3.584-8,8-8c4.416,0,8,3.584,8,8v32 C264,340.416,260.416,344,256,344z"/> <path style="fill:#ad7fa8;" d="M344,408v72H168v-72l77.04-28c7.056-2.56,14.784-2.56,21.84,0L344,408z"/> </g> <path style="fill:#C9D5E3;" d="M352,360c-4.416,0-8-3.584-8-8c-0.008-21.632-7.976-42.512-22.4-58.64 c-2.768-3.448-2.216-8.48,1.232-11.248c3.192-2.56,7.808-2.304,10.688,0.608c17.04,19.056,26.464,43.72,26.48,69.28 C360,356.416,356.416,360,352,360z"/> <path style="fill:#ECF0F9;" d="M175.52,368c4.416,0,8-3.584,8-8c0.008-21.632,7.976-42.512,22.4-58.64 c2.768-3.448,2.216-8.48-1.232-11.248c-3.192-2.56-7.808-2.304-10.688,0.608c-17.04,19.056-26.464,43.72-26.48,69.28 C167.52,364.416,171.104,368,175.52,368z"/> <g> <rect x="344" y="352" style="fill:#C9D5E3;" width="16" height="128"/> <path style="fill:#C9D5E3;" d="M344.48,32v0.88L344,32H152c0,8.84,7.16,16,16,16h160.48c8.84,0,16,7.16,16,16v86.96 c0,21.68-5.84,44.48-21.84,59.12c-3.112,3.136-3.096,8.208,0.04,11.32c3.136,3.112,8.208,3.096,11.32-0.04 c17.056-19.072,26.488-43.768,26.48-69.36V32H344.48z"/> </g> <path style="fill:#ECF0F9;" d="M176,72L176,72c4.416,0,8,3.584,8,8v64c0,4.416-3.584,8-8,8l0,0c-4.416,0-8-3.584-8-8V80 C168,75.584,171.584,72,176,72z"/> <path style="fill:#ad7fa8;" d="M176,152c4.416,0,8-3.584,8-8v-5.12L168,136v8C168,148.416,171.584,152,176,152z"/> <g> <path style="fill:#000000;" d="M400,360v120h-8V368C392,363.584,395.584,360,400,360z"/> <path style="fill:#000000;" d="M392,16H120c-8.84,0-16,7.16-16,16h8v16c4.416,0,8,3.584,8,8v64c0,4.416,3.584,8,8,8V32h256v16 c4.416,0,8,3.584,8,8v64c0,4.416,3.584,8,8,8V32h8C408,23.16,400.84,16,392,16z"/> <path style="fill:#000000;" d="M128,360v120h-8V368C120,363.584,123.584,360,128,360z"/> </g> </g>
</svg>